<svg width="1440" height="1915" viewBox="0 0 1440 1915" fill="none" xmlns="http://www.w3.org/2000/svg">
<rect x="-4" y="-1" width="1440" height="975" fill="url(#paint0_linear)"/>
<path opacity="0.111111" d="M-64.98 731.406C40.7619 710.572 157.8 686.989 381.323 661.176C604.845 635.362 682.541 625.184 815.501 595.353C948.461 565.523 989.447 560.672 1279.46 544.643C1570.01 528.584 1978.65 437.923 1978.65 437.923" stroke="url(#paint1_linear)" stroke-width="1.11111"/>
<path opacity="0.222222" d="M-90.3425 699.238C16.1472 677.372 133.992 652.403 359.805 632.919C585.618 613.435 664.063 604.894 797.822 572.069C931.581 539.245 972.982 535.499 1266.65 535.838C1560.86 536.177 1971.99 436.789 1971.99 436.789" stroke="url(#paint2_linear)" stroke-width="1.22222"/>
<path opacity="0.333333" d="M-115.451 666.526C-8.1451 643.648 110.591 617.314 338.541 604.232C566.491 591.149 645.651 584.268 780.354 548.469C915.056 512.671 956.846 510.043 1253.68 526.869C1551.06 543.725 1965.12 435.675 1965.12 435.675" stroke="url(#paint3_linear)" stroke-width="1.33333"/>
<path opacity="0.444444" d="M-140.291 633.27C-32.1021 609.403 87.6089 581.73 317.54 575.116C547.472 568.503 627.313 563.304 763.104 524.556C898.895 485.808 941.047 484.311 1240.56 517.731C1540.63 551.212 1958.04 434.576 1958.04 434.576" stroke="url(#paint4_linear)" stroke-width="1.44444"/>
<path opacity="0.555556" d="M-164.85 599.472C-55.7104 574.641 65.0579 545.655 296.814 545.575C528.57 545.495 609.058 542 746.081 500.331C883.104 458.663 925.592 458.309 1227.3 508.418C1529.56 558.619 1950.75 433.486 1950.75 433.486" stroke="url(#paint5_linear)" stroke-width="1.55556"/>
<path opacity="0.666667" d="M-189.114 565.135C-78.9573 539.366 42.9505 509.097 276.373 515.611C509.795 522.126 590.894 520.356 729.292 475.799C867.69 431.242 910.487 432.042 1213.89 498.924C1517.85 565.928 1943.24 432.399 1943.24 432.399" stroke="url(#paint6_linear)" stroke-width="1.66667"/>
<path opacity="0.777778" d="M-213.07 530.26C-101.83 503.583 21.2984 472.062 256.227 485.228C491.155 498.394 572.829 498.37 712.745 450.962C852.66 403.554 895.738 405.518 1200.35 489.243C1505.52 573.122 1935.52 431.311 1935.52 431.311" stroke="url(#paint7_linear)" stroke-width="1.77778"/>
<path opacity="0.888889" d="M-236.703 494.85C-124.315 467.295 0.114599 434.558 236.387 454.429C472.66 474.301 554.873 476.041 696.448 425.823C838.022 375.605 881.353 378.743 1186.67 479.371C1492.55 580.183 1927.59 430.214 1927.59 430.214" stroke="url(#paint8_linear)" stroke-width="1.88889"/>
<path d="M-260 181.908C-146.401 153.508 -40.5078 78.2347 196.946 104.862C434.4 131.489 512.03 227.985 686.488 204.947C860.946 181.908 873.419 156.285 1178.95 273.862C1485.03 391.654 1919.45 152.105 1919.45 152.105" stroke="url(#paint9_linear)"/>
<g filter="url(#filter0_f)">
<path d="M-218.1 560.862C395.946 524.862 423.946 430.862 719.946 394.862C1015.95 358.862 1153.98 588.168 1321.95 551.862C1489.92 515.557 2050.95 822.862 2050.95 822.862L-218.1 822.862L-218.1 560.862Z" fill="url(#paint10_linear)"/>
</g>
<g filter="url(#filter1_f)">
<path d="M1220.95 522.491C1008.15 440.598 949.932 459.883 727.949 478.862C505.967 497.842 353.338 572.408 187.949 553.862C22.5614 535.316 17.958 604.91 -61.1646 624.691C-61.1646 711.862 -61.1645 846.674 -61.1645 846.674L1485.02 846.674V522.491C1485.02 522.491 1434.14 604.534 1220.95 522.491Z" fill="url(#paint11_linear)"/>
</g>
<rect x="-3" y="399" width="1440" height="575" fill="url(#paint12_linear)"/>
<path d="M1151.95 620.862C939.148 538.969 877.932 601.882 655.95 620.862C433.967 639.842 365.338 687.408 199.949 668.862C34.5614 650.316 20.9248 732.47 -58.1978 752.251C-58.1978 840.183 -58.1978 974.233 -58.1978 974.233L1517.99 974.233L1517.99 650.051C1517.99 650.051 1365.14 702.905 1151.95 620.862Z" fill="url(#paint13_linear)" fill-opacity="0.5"/>
<g clip-path="url(#clip0)">
<g clip-path="url(#clip1)">
<circle cx="35.4453" cy="40.3618" r="0.5" fill="white" fill-opacity="0.5"/>
<circle cx="65.4453" cy="60.3618" r="0.5" fill="white" fill-opacity="0.5"/>
<circle cx="105.445" cy="50.3618" r="0.5" fill="white" fill-opacity="0.5"/>
<circle cx="125.445" cy="20.3618" r="0.5" fill="white" fill-opacity="0.5"/>
<circle cx="175.445" cy="40.3618" r="0.5" fill="white" fill-opacity="0.5"/>
<circle cx="234.445" cy="50.3618" r="0.5" fill="white" fill-opacity="0.5"/>
<circle cx="264.445" cy="70.3618" r="0.5" fill="white" fill-opacity="0.5"/>
<circle cx="304.445" cy="60.3618" r="0.5" fill="white" fill-opacity="0.5"/>
<circle cx="324.445" cy="30.3618" r="0.5" fill="white" fill-opacity="0.5"/>
<circle cx="374.445" cy="50.3618" r="0.5" fill="white" fill-opacity="0.5"/>
<circle cx="33.4453" cy="111.362" r="0.5" fill="white" fill-opacity="0.5"/>
<circle cx="63.4453" cy="131.362" r="0.5" fill="white" fill-opacity="0.5"/>
<circle cx="103.445" cy="121.362" r="0.5" fill="white" fill-opacity="0.5"/>
<circle cx="123.445" cy="91.3618" r="0.5" fill="white" fill-opacity="0.5"/>
<circle cx="173.445" cy="111.362" r="0.5" fill="white" fill-opacity="0.5"/>
<circle cx="377.445" cy="40.3618" r="0.5" fill="white" fill-opacity="0.5"/>
<circle cx="407.445" cy="60.3618" r="0.5" fill="white" fill-opacity="0.5"/>
<circle cx="447.445" cy="50.3618" r="0.5" fill="white" fill-opacity="0.5"/>
<circle cx="467.445" cy="20.3618" r="0.5" fill="white" fill-opacity="0.5"/>
<circle cx="517.445" cy="40.3618" r="0.5" fill="white" fill-opacity="0.5"/>
<circle cx="576.445" cy="50.3618" r="0.5" fill="white" fill-opacity="0.5"/>
<circle cx="606.445" cy="70.3618" r="0.5" fill="white" fill-opacity="0.5"/>
<circle cx="646.445" cy="60.3618" r="0.5" fill="white" fill-opacity="0.5"/>
<circle cx="666.445" cy="30.3618" r="0.5" fill="white" fill-opacity="0.5"/>
<circle cx="716.445" cy="50.3618" r="0.5" fill="white" fill-opacity="0.5"/>
<circle cx="375.445" cy="111.362" r="0.5" fill="white" fill-opacity="0.5"/>
<circle cx="405.445" cy="131.362" r="0.5" fill="white" fill-opacity="0.5"/>
<circle cx="445.445" cy="121.362" r="0.5" fill="white" fill-opacity="0.5"/>
<circle cx="465.445" cy="91.3618" r="0.5" fill="white" fill-opacity="0.5"/>
<circle cx="515.445" cy="111.362" r="0.5" fill="white" fill-opacity="0.5"/>
<circle cx="719.445" cy="40.3618" r="0.5" fill="white" fill-opacity="0.5"/>
<circle cx="749.445" cy="60.3618" r="0.5" fill="white" fill-opacity="0.5"/>
<circle cx="789.445" cy="50.3618" r="0.5" fill="white" fill-opacity="0.5"/>
<circle cx="809.445" cy="20.3618" r="0.5" fill="white" fill-opacity="0.5"/>
<circle cx="859.445" cy="40.3618" r="0.5" fill="white" fill-opacity="0.5"/>
<circle cx="918.445" cy="50.3618" r="0.5" fill="white" fill-opacity="0.5"/>
<circle cx="948.445" cy="70.3618" r="0.5" fill="white" fill-opacity="0.5"/>
<circle cx="988.445" cy="60.3618" r="0.5" fill="white" fill-opacity="0.5"/>
<circle cx="1008.45" cy="30.3618" r="0.5" fill="white" fill-opacity="0.5"/>
<circle cx="1058.45" cy="50.3618" r="0.5" fill="white" fill-opacity="0.5"/>
<circle cx="717.445" cy="111.362" r="0.5" fill="white" fill-opacity="0.5"/>
<circle cx="747.445" cy="131.362" r="0.5" fill="white" fill-opacity="0.5"/>
<circle cx="787.445" cy="121.362" r="0.5" fill="white" fill-opacity="0.5"/>
<circle cx="807.445" cy="91.3618" r="0.5" fill="white" fill-opacity="0.5"/>
<circle cx="857.445" cy="111.362" r="0.5" fill="white" fill-opacity="0.5"/>
<circle cx="1061.45" cy="40.3618" r="0.5" fill="white" fill-opacity="0.5"/>
<circle cx="1091.45" cy="60.3618" r="0.5" fill="white" fill-opacity="0.5"/>
<circle cx="1131.45" cy="50.3618" r="0.5" fill="white" fill-opacity="0.5"/>
<circle cx="1151.45" cy="20.3618" r="0.5" fill="white" fill-opacity="0.5"/>
<circle cx="1201.45" cy="40.3618" r="0.5" fill="white" fill-opacity="0.5"/>
<circle cx="1260.45" cy="50.3618" r="0.5" fill="white" fill-opacity="0.5"/>
<circle cx="1290.45" cy="70.3618" r="0.5" fill="white" fill-opacity="0.5"/>
<circle cx="1330.45" cy="60.3618" r="0.5" fill="white" fill-opacity="0.5"/>
<circle cx="1350.45" cy="30.3618" r="0.5" fill="white" fill-opacity="0.5"/>
<circle cx="1400.45" cy="50.3618" r="0.5" fill="white" fill-opacity="0.5"/>
<circle cx="1059.45" cy="111.362" r="0.5" fill="white" fill-opacity="0.5"/>
<circle cx="1089.45" cy="131.362" r="0.5" fill="white" fill-opacity="0.5"/>
<circle cx="1129.45" cy="121.362" r="0.5" fill="white" fill-opacity="0.5"/>
<circle cx="1149.45" cy="91.3618" r="0.5" fill="white" fill-opacity="0.5"/>
<circle cx="1199.45" cy="111.362" r="0.5" fill="white" fill-opacity="0.5"/>
</g>
<g clip-path="url(#clip2)">
<circle cx="35.4453" cy="152.362" r="0.5" fill="white" fill-opacity="0.5"/>
<circle cx="65.4453" cy="172.362" r="0.5" fill="white" fill-opacity="0.5"/>
<circle cx="105.445" cy="162.362" r="0.5" fill="white" fill-opacity="0.5"/>
<circle cx="125.445" cy="132.362" r="0.5" fill="white" fill-opacity="0.5"/>
<circle cx="175.445" cy="152.362" r="0.5" fill="white" fill-opacity="0.5"/>
<circle cx="234.445" cy="162.362" r="0.5" fill="white" fill-opacity="0.5"/>
<circle cx="264.445" cy="182.362" r="0.5" fill="white" fill-opacity="0.5"/>
<circle cx="304.445" cy="172.362" r="0.5" fill="white" fill-opacity="0.5"/>
<circle cx="324.445" cy="142.362" r="0.5" fill="white" fill-opacity="0.5"/>
<circle cx="374.445" cy="162.362" r="0.5" fill="white" fill-opacity="0.5"/>
<circle cx="33.4453" cy="223.362" r="0.5" fill="white" fill-opacity="0.5"/>
<circle cx="63.4453" cy="243.362" r="0.5" fill="white" fill-opacity="0.5"/>
<circle cx="103.445" cy="233.362" r="0.5" fill="white" fill-opacity="0.5"/>
<circle cx="123.445" cy="203.362" r="0.5" fill="white" fill-opacity="0.5"/>
<circle cx="173.445" cy="223.362" r="0.5" fill="white" fill-opacity="0.5"/>
<circle cx="377.445" cy="152.362" r="0.5" fill="white" fill-opacity="0.5"/>
<circle cx="407.445" cy="172.362" r="0.5" fill="white" fill-opacity="0.5"/>
<circle cx="447.445" cy="162.362" r="0.5" fill="white" fill-opacity="0.5"/>
<circle cx="467.445" cy="132.362" r="0.5" fill="white" fill-opacity="0.5"/>
<circle cx="517.445" cy="152.362" r="0.5" fill="white" fill-opacity="0.5"/>
<circle cx="576.445" cy="162.362" r="0.5" fill="white" fill-opacity="0.5"/>
<circle cx="606.445" cy="182.362" r="0.5" fill="white" fill-opacity="0.5"/>
<circle cx="646.445" cy="172.362" r="0.5" fill="white" fill-opacity="0.5"/>
<circle cx="666.445" cy="142.362" r="0.5" fill="white" fill-opacity="0.5"/>
<circle cx="716.445" cy="162.362" r="0.5" fill="white" fill-opacity="0.5"/>
<circle cx="375.445" cy="223.362" r="0.5" fill="white" fill-opacity="0.5"/>
<circle cx="405.445" cy="243.362" r="0.5" fill="white" fill-opacity="0.5"/>
<circle cx="445.445" cy="233.362" r="0.5" fill="white" fill-opacity="0.5"/>
<circle cx="465.445" cy="203.362" r="0.5" fill="white" fill-opacity="0.5"/>
<circle cx="515.445" cy="223.362" r="0.5" fill="white" fill-opacity="0.5"/>
<circle cx="719.445" cy="152.362" r="0.5" fill="white" fill-opacity="0.5"/>
<circle cx="749.445" cy="172.362" r="0.5" fill="white" fill-opacity="0.5"/>
<circle cx="789.445" cy="162.362" r="0.5" fill="white" fill-opacity="0.5"/>
<circle cx="809.445" cy="132.362" r="0.5" fill="white" fill-opacity="0.5"/>
<circle cx="859.445" cy="152.362" r="0.5" fill="white" fill-opacity="0.5"/>
<circle cx="918.445" cy="162.362" r="0.5" fill="white" fill-opacity="0.5"/>
<circle cx="948.445" cy="182.362" r="0.5" fill="white" fill-opacity="0.5"/>
<circle cx="988.445" cy="172.362" r="0.5" fill="white" fill-opacity="0.5"/>
<circle cx="1008.45" cy="142.362" r="0.5" fill="white" fill-opacity="0.5"/>
<circle cx="1058.45" cy="162.362" r="0.5" fill="white" fill-opacity="0.5"/>
<circle cx="717.445" cy="223.362" r="0.5" fill="white" fill-opacity="0.5"/>
<circle cx="747.445" cy="243.362" r="0.5" fill="white" fill-opacity="0.5"/>
<circle cx="787.445" cy="233.362" r="0.5" fill="white" fill-opacity="0.5"/>
<circle cx="807.445" cy="203.362" r="0.5" fill="white" fill-opacity="0.5"/>
<circle cx="857.445" cy="223.362" r="0.5" fill="white" fill-opacity="0.5"/>
<circle cx="1061.45" cy="152.362" r="0.5" fill="white" fill-opacity="0.5"/>
<circle cx="1091.45" cy="172.362" r="0.5" fill="white" fill-opacity="0.5"/>
<circle cx="1131.45" cy="162.362" r="0.5" fill="white" fill-opacity="0.5"/>
<circle cx="1151.45" cy="132.362" r="0.5" fill="white" fill-opacity="0.5"/>
<circle cx="1201.45" cy="152.362" r="0.5" fill="white" fill-opacity="0.5"/>
<circle cx="1260.45" cy="162.362" r="0.5" fill="white" fill-opacity="0.5"/>
<circle cx="1290.45" cy="182.362" r="0.5" fill="white" fill-opacity="0.5"/>
<circle cx="1330.45" cy="172.362" r="0.5" fill="white" fill-opacity="0.5"/>
<circle cx="1350.45" cy="142.362" r="0.5" fill="white" fill-opacity="0.5"/>
<circle cx="1400.45" cy="162.362" r="0.5" fill="white" fill-opacity="0.5"/>
<circle cx="1059.45" cy="223.362" r="0.5" fill="white" fill-opacity="0.5"/>
<circle cx="1089.45" cy="243.362" r="0.5" fill="white" fill-opacity="0.5"/>
<circle cx="1129.45" cy="233.362" r="0.5" fill="white" fill-opacity="0.5"/>
<circle cx="1149.45" cy="203.362" r="0.5" fill="white" fill-opacity="0.5"/>
<circle cx="1199.45" cy="223.362" r="0.5" fill="white" fill-opacity="0.5"/>
</g>
</g>
<rect x="-3" y="-1" width="1440" height="400" fill="url(#paint14_linear)"/>
<g clip-path="url(#clip3)">
<path opacity="0.5" d="M1998.07 77.392C1966.49 122.929 1911.06 167.113 1855.35 162.762C1848.39 162.279 1825.41 160.635 1809.38 167.21C1744.4 193.797 1715.23 246.199 1645.03 217.678C1598.97 198.438 1550.69 164.309 1526.74 120.416C1523.27 114.131 1520.37 107.75 1518.05 101.079C1515.64 88.1237 1513.52 72.7513 1502.51 66.1769C1401.7 -4.11093 1381.9 -151.164 1460.89 -236.728C1465.04 -241.369 1469.39 -245.429 1474.02 -248.813C1489.37 -258.675 1506.85 -267.473 1513.52 -282.845C1527.81 -319.101 1555.71 -347.525 1588.64 -360.771C1595.21 -363.381 1601.97 -365.412 1608.92 -366.765C1620.99 -370.633 1636.34 -366.282 1647.25 -375.08C1697.08 -404.568 1748.45 -406.308 1790.55 -385.812C1796.64 -382.911 1802.33 -379.527 1807.84 -376.53C1879.78 -378.657 1959.34 -344.625 1983.39 -280.622C1986.09 -273.564 1988.12 -266.216 1991.02 -260.028C2030.99 -225.706 2039.78 -173.014 2028.77 -122.546C2030.7 -116.455 2032.54 -110.171 2033.99 -103.887C2047.6 -47.2311 2042.49 14.5487 2008.5 63.5665C2005.12 68.4006 2001.64 73.0413 1998.07 77.392Z" stroke="#161616" stroke-width="1.1473" stroke-miterlimit="10" stroke-linejoin="round"/>
<path opacity="0.5" d="M1525.97 -265.539C1539.97 -299.668 1565.95 -326.932 1597.14 -339.308C1603.32 -341.821 1609.89 -343.368 1616.35 -345.012C1628.04 -348.009 1642.33 -344.528 1652.66 -352.843C1699.88 -380.687 1748.55 -382.428 1788.33 -363.091C1794.03 -360.288 1799.53 -357.097 1804.65 -354.39C1872.82 -356.42 1948.24 -324.225 1970.93 -263.605C1973.44 -256.838 1975.37 -249.973 1978.08 -244.076C2015.93 -211.591 2024.23 -161.606 2013.81 -113.845C2015.64 -108.044 2017.28 -102.146 2018.83 -96.1522C2031.86 -42.4937 2026.84 15.999 1994.69 62.503C1991.6 67.0471 1988.02 71.3011 1984.84 75.6518C1953.45 117.708 1902.47 160.345 1849.65 156.478C1842.99 155.995 1821.36 154.641 1806.1 160.829C1744.69 186.063 1716.68 235.757 1650.44 208.493C1606.8 190.51 1561.12 157.928 1538.43 116.452C1535.24 110.554 1532.35 104.463 1530.22 98.082C1528 85.8034 1525.68 71.5911 1515.54 65.0167C1417.82 1.69002 1402.18 -140.046 1476.05 -221.936C1480.01 -226.383 1484.06 -230.347 1488.51 -233.344C1502.89 -243.206 1519.99 -250.94 1525.97 -265.539Z" stroke="#161616" stroke-width="1.1473" stroke-miterlimit="10" stroke-linejoin="round"/>
<path opacity="0.5" d="M1538.53 -248.426C1551.75 -280.622 1576.28 -306.339 1605.73 -318.134C1611.62 -320.551 1617.71 -321.905 1623.89 -323.548C1634.89 -326.352 1648.41 -323.065 1658.26 -330.993C1702.87 -357.29 1748.84 -358.934 1786.4 -340.661C1791.81 -338.051 1797.02 -335.054 1801.85 -332.346C1866.16 -334.28 1937.42 -303.825 1958.86 -246.589C1961.28 -240.208 1963.11 -233.634 1965.62 -228.123C2001.35 -197.378 2009.17 -150.294 1999.32 -105.144C2001.16 -99.6328 2002.7 -94.1219 2004.05 -88.5144C2016.32 -37.853 2011.68 17.3525 1981.26 61.2461C1978.27 65.5001 1974.99 69.5608 1971.9 73.6214C1942.25 113.358 1894.07 153.191 1844.24 149.904C1837.87 149.42 1817.49 148.26 1803.2 154.061C1745.27 177.845 1718.61 224.639 1656.24 199.018C1614.91 182.099 1571.84 151.354 1550.5 112.101C1547.41 106.493 1544.8 100.692 1542.77 94.7948C1540.65 83.1929 1538.53 69.8508 1528.87 63.6631C1436.56 3.91365 1421.88 -129.894 1491.6 -207.24C1495.36 -211.397 1499.13 -215.168 1503.38 -218.068C1516.7 -227.253 1532.83 -234.601 1538.53 -248.426Z" stroke="#161616" stroke-width="1.1473" stroke-miterlimit="10" stroke-linejoin="round"/>
<path opacity="0.5" d="M238.746 167.394H236.139V164.783C236.139 163.43 235.077 162.269 233.628 162.269C232.18 162.269 231.118 163.333 231.118 164.783V167.394H228.511C227.159 167.394 226 168.457 226 169.907C226 171.358 227.062 172.421 228.511 172.421H231.118V175.031C231.118 176.385 232.18 177.545 233.628 177.545C235.077 177.545 236.139 176.482 236.139 175.031V172.324H238.746C240.098 172.324 241.257 171.261 241.257 169.811C241.257 168.36 240.098 167.394 238.746 167.394ZM263.466 172.324H266.073V174.935C266.073 176.288 267.136 177.448 268.584 177.448C270.033 177.448 271.095 176.385 271.095 174.935V172.324H273.702C275.054 172.324 276.212 171.261 276.212 169.811C276.212 168.36 275.15 167.297 273.702 167.297H271.095V164.686C271.095 163.333 270.033 162.173 268.584 162.173C267.136 162.173 266.073 163.236 266.073 164.686V167.297H263.466C262.114 167.297 260.956 168.36 260.956 169.811C260.956 171.261 262.018 172.324 263.466 172.324ZM273.605 202.392H270.998V199.782C270.998 198.428 269.936 197.268 268.487 197.268C267.039 197.268 265.977 198.332 265.977 199.782V202.392H263.37C262.018 202.392 260.859 203.456 260.859 204.906C260.859 206.356 261.921 207.42 263.37 207.42H265.977V210.03C265.977 211.384 267.039 212.544 268.487 212.544C269.936 212.544 270.998 211.481 270.998 210.03V207.42H273.605C274.957 207.42 276.116 206.356 276.116 204.906C276.116 203.456 274.957 202.392 273.605 202.392ZM238.746 202.392H236.139V199.782C236.139 198.428 235.077 197.268 233.628 197.268C232.18 197.268 231.118 198.332 231.118 199.782V202.392H228.511C227.159 202.392 226 203.456 226 204.906C226 206.356 227.062 207.42 228.511 207.42H231.118V210.03C231.118 211.384 232.18 212.544 233.628 212.544C235.077 212.544 236.139 211.481 236.139 210.03V207.42H238.746C240.098 207.42 241.257 206.356 241.257 204.906C241.257 203.456 240.098 202.392 238.746 202.392Z" fill="white"/>
<path opacity="0.5" d="M655.746 428.643H653.139V426.032C653.139 424.679 652.077 423.518 650.628 423.518C649.18 423.518 648.118 424.582 648.118 426.032V428.643H645.511C644.159 428.643 643 429.706 643 431.156C643 432.607 644.062 433.67 645.511 433.67H648.118V436.28C648.118 437.634 649.18 438.794 650.628 438.794C652.077 438.794 653.139 437.731 653.139 436.28V433.573H655.746C657.098 433.573 658.257 432.51 658.257 431.06C658.257 429.609 657.098 428.643 655.746 428.643ZM680.466 433.573H683.073V436.184C683.073 437.537 684.136 438.698 685.584 438.698C687.032 438.698 688.095 437.634 688.095 436.184V433.573H690.702C692.054 433.573 693.212 432.51 693.212 431.06C693.212 429.609 692.15 428.546 690.702 428.546H688.095V425.935C688.095 424.582 687.032 423.422 685.584 423.422C684.136 423.422 683.073 424.485 683.073 425.935V428.546H680.466C679.114 428.546 677.956 429.609 677.956 431.06C677.956 432.51 679.018 433.573 680.466 433.573ZM690.605 463.642H687.998V461.031C687.998 459.678 686.936 458.517 685.487 458.517C684.039 458.517 682.977 459.581 682.977 461.031V463.642H680.37C679.018 463.642 677.859 464.705 677.859 466.155C677.859 467.605 678.921 468.669 680.37 468.669H682.977V471.279C682.977 472.633 684.039 473.793 685.487 473.793C686.936 473.793 687.998 472.73 687.998 471.279V468.669H690.605C691.957 468.669 693.116 467.605 693.116 466.155C693.116 464.705 691.957 463.642 690.605 463.642ZM655.746 463.642H653.139V461.031C653.139 459.678 652.077 458.517 650.628 458.517C649.18 458.517 648.118 459.581 648.118 461.031V463.642H645.511C644.159 463.642 643 464.705 643 466.155C643 467.605 644.062 468.669 645.511 468.669H648.118V471.279C648.118 472.633 649.18 473.793 650.628 473.793C652.077 473.793 653.139 472.73 653.139 471.279V468.669H655.746C657.098 468.669 658.257 467.605 658.257 466.155C658.257 464.705 657.098 463.642 655.746 463.642Z" fill="white"/>
<path opacity="0.5" d="M173.746 844.039H171.139V841.428C171.139 840.075 170.077 838.914 168.628 838.914C167.18 838.914 166.118 839.978 166.118 841.428V844.039H163.511C162.159 844.039 161 845.102 161 846.552C161 848.003 162.062 849.066 163.511 849.066H166.118V851.676C166.118 853.03 167.18 854.19 168.628 854.19C170.077 854.19 171.139 853.127 171.139 851.676V848.969H173.746C175.098 848.969 176.257 847.906 176.257 846.456C176.257 845.005 175.098 844.039 173.746 844.039ZM198.466 848.969H201.073V851.58C201.073 852.933 202.136 854.094 203.584 854.094C205.032 854.094 206.095 853.03 206.095 851.58V848.969H208.702C210.054 848.969 211.212 847.906 211.212 846.456C211.212 845.005 210.15 843.942 208.702 843.942H206.095V841.332C206.095 839.978 205.032 838.818 203.584 838.818C202.136 838.818 201.073 839.881 201.073 841.332V843.942H198.466C197.114 843.942 195.956 845.005 195.956 846.456C195.956 847.906 197.018 848.969 198.466 848.969ZM208.605 879.037H205.998V876.427C205.998 875.074 204.936 873.913 203.487 873.913C202.039 873.913 200.977 874.977 200.977 876.427V879.037H198.37C197.018 879.037 195.859 880.101 195.859 881.551C195.859 883.001 196.921 884.065 198.37 884.065H200.977V886.675C200.977 888.029 202.039 889.189 203.487 889.189C204.936 889.189 205.998 888.126 205.998 886.675V884.065H208.605C209.957 884.065 211.116 883.001 211.116 881.551C211.116 880.101 209.957 879.037 208.605 879.037ZM173.746 879.037H171.139V876.427C171.139 875.074 170.077 873.913 168.628 873.913C167.18 873.913 166.118 874.977 166.118 876.427V879.037H163.511C162.159 879.037 161 880.101 161 881.551C161 883.001 162.062 884.065 163.511 884.065H166.118V886.675C166.118 888.029 167.18 889.189 168.628 889.189C170.077 889.189 171.139 888.126 171.139 886.675V884.065H173.746C175.098 884.065 176.257 883.001 176.257 881.551C176.257 880.101 175.098 879.037 173.746 879.037Z" fill="white"/>
<path opacity="0.5" d="M1316.75 128.356H1314.14V125.746C1314.14 124.392 1313.08 123.232 1311.63 123.232C1310.18 123.232 1309.12 124.296 1309.12 125.746V128.356H1306.51C1305.16 128.356 1304 129.42 1304 130.87C1304 132.32 1305.06 133.384 1306.51 133.384H1309.12V135.994C1309.12 137.348 1310.18 138.508 1311.63 138.508C1313.08 138.508 1314.14 137.444 1314.14 135.994V133.287H1316.75C1318.1 133.287 1319.26 132.224 1319.26 130.773C1319.26 129.323 1318.1 128.356 1316.75 128.356ZM1341.47 133.287H1344.07V135.898C1344.07 137.251 1345.14 138.411 1346.58 138.411C1348.03 138.411 1349.09 137.348 1349.09 135.898V133.287H1351.7C1353.05 133.287 1354.21 132.224 1354.21 130.773C1354.21 129.323 1353.15 128.26 1351.7 128.26H1349.09V125.649C1349.09 124.296 1348.03 123.135 1346.58 123.135C1345.14 123.135 1344.07 124.199 1344.07 125.649V128.26H1341.47C1340.11 128.26 1338.96 129.323 1338.96 130.773C1338.96 132.224 1340.02 133.287 1341.47 133.287ZM1351.61 163.355H1349V160.745C1349 159.391 1347.94 158.231 1346.49 158.231C1345.04 158.231 1343.98 159.295 1343.98 160.745V163.355H1341.37C1340.02 163.355 1338.86 164.419 1338.86 165.869C1338.86 167.319 1339.92 168.383 1341.37 168.383H1343.98V170.993C1343.98 172.347 1345.04 173.507 1346.49 173.507C1347.94 173.507 1349 172.443 1349 170.993V168.383H1351.61C1352.96 168.383 1354.12 167.319 1354.12 165.869C1354.12 164.419 1352.96 163.355 1351.61 163.355ZM1316.75 163.355H1314.14V160.745C1314.14 159.391 1313.08 158.231 1311.63 158.231C1310.18 158.231 1309.12 159.295 1309.12 160.745V163.355H1306.51C1305.16 163.355 1304 164.419 1304 165.869C1304 167.319 1305.06 168.383 1306.51 168.383H1309.12V170.993C1309.12 172.347 1310.18 173.507 1311.63 173.507C1313.08 173.507 1314.14 172.443 1314.14 170.993V168.383H1316.75C1318.1 168.383 1319.26 167.319 1319.26 165.869C1319.26 164.419 1318.1 163.355 1316.75 163.355Z" fill="white"/>
</g>
<path opacity="0.5" d="M1843.02 1350.17C1810.65 1315.37 1806.1 1265.74 1796.56 1217.01C1784.52 1168.79 1735.5 1159.02 1699.88 1150.04C1657.93 1135.88 1669.85 1076.78 1643.74 1050.12C1585.26 991.764 1503.7 1041.91 1440.71 1053.72C1425.51 1056.5 1409.46 1040.81 1394.27 1043.58C1338.25 1050.98 1292.38 1110.25 1277.35 1166.71C1264.19 1219.74 1237.4 1256.43 1226.85 1308.87C1226.74 1321.48 1233.49 1329.75 1235.99 1341.87C1250.12 1373.97 1287.06 1389.16 1286.01 1423.92C1283.68 1465.48 1222.84 1514.83 1275.92 1545.85C1308.39 1564.94 1345.58 1554.69 1380.64 1573.41C1348.23 1607.97 1315.07 1652.23 1326.39 1710.02C1335.92 1758.75 1368.9 1793.59 1410.33 1804.75C1454.16 1815.38 1492.91 1786 1522.79 1758.37C1528.13 1757.2 1533.08 1757.36 1537.87 1758.07C1623.81 1770.62 1710.55 1763.72 1764.34 1677.76C1784.77 1648.64 1805.73 1622.52 1826.16 1593.4C1860.05 1539.57 1883.95 1475.03 1858.83 1406.92C1857.41 1396.76 1856.51 1385.67 1854.25 1375.64C1851.75 1365.9 1847.17 1358.1 1843.02 1350.17Z" stroke="white" stroke-width="1.169" stroke-miterlimit="10" stroke-linecap="round" stroke-linejoin="round"/>
<path opacity="0.5" d="M1843.12 1399.59C1841.83 1389.94 1840.95 1379.45 1838.73 1369.91C1836.52 1360.37 1832.29 1353.02 1828.38 1345.52C1797.61 1312.46 1794.49 1265.13 1784.3 1219.08C1774.01 1173.01 1726.22 1165.48 1692.46 1155.57C1652.35 1143.7 1664 1085.84 1639.21 1060.73C1583.96 1004.92 1506.23 1052.89 1446.54 1064.3C1432.17 1067.06 1416.91 1052.3 1402.49 1054.57C1349.57 1063.16 1305.34 1117.63 1291.47 1171.43C1278.58 1221.56 1253.62 1256.61 1243.51 1306.42C1243.38 1318.43 1249.88 1326.28 1252.16 1337.74C1265.58 1368.22 1301.1 1382.66 1299.66 1415.76C1298 1455.24 1239.72 1502.07 1290.06 1531.51C1320.92 1549.69 1356.21 1539.99 1389.37 1557.72C1358.62 1590.47 1327.08 1632.42 1337.85 1687.33C1346.9 1733.54 1378.1 1767.18 1417.44 1777.18C1459.04 1787.79 1495.85 1759.31 1524.12 1733.16C1529.24 1732.05 1533.91 1732.13 1538.4 1732.75C1619.95 1744.71 1700.38 1736.33 1753.27 1656.56C1771.97 1628.28 1793.2 1604.73 1811.98 1576.59C1845.38 1526.56 1867.05 1464.28 1843.12 1399.59Z" stroke="white" stroke-width="1.169" stroke-miterlimit="10" stroke-linecap="round" stroke-linejoin="round"/>
<path opacity="0.5" d="M1827.64 1392.09C1826.37 1383.04 1825.63 1373.07 1823.45 1364.01C1821.37 1354.98 1817.29 1348.03 1813.65 1340.84C1784.56 1309.68 1781.64 1264.78 1771.93 1221.25C1762.23 1177.72 1716.94 1170.51 1685.04 1161.11C1647.07 1149.94 1658.13 1095.14 1634.59 1071.33C1582.3 1018.59 1508.77 1063.89 1452.21 1074.71C1438.58 1077.2 1424.21 1063.4 1410.53 1065.51C1360.42 1073.56 1318.6 1125.11 1305.49 1176.14C1293.35 1223.61 1269.67 1256.62 1260.11 1303.84C1259.95 1315.24 1266.12 1322.52 1268.26 1333.47C1280.88 1362.3 1314.58 1375.89 1313.16 1407.21C1311.58 1444.56 1256.37 1488.89 1304.16 1516.8C1333.32 1534.04 1366.72 1524.78 1398.17 1541.57C1369.06 1572.62 1339.24 1612.3 1349.47 1664.31C1358.02 1708.12 1387.65 1739.79 1424.81 1749.32C1464.14 1759.43 1499.02 1732.45 1525.8 1707.68C1530.61 1706.6 1535.06 1706.74 1539.34 1707.43C1616.5 1718.78 1692.71 1710.81 1742.7 1635.38C1760.39 1608.6 1780.45 1586.29 1798.33 1559.57C1829.76 1512.23 1850.19 1453.3 1827.64 1392.09Z" stroke="white" stroke-width="1.169" stroke-miterlimit="10" stroke-linecap="round" stroke-linejoin="round"/>
<path opacity="0.5" d="M1812.25 1384.6C1811.02 1376.04 1810.3 1366.67 1808.37 1358.04C1806.33 1349.5 1802.6 1343 1799.11 1336.21C1771.63 1306.79 1768.88 1264.44 1759.77 1223.34C1750.57 1182.21 1707.96 1175.5 1677.83 1166.58C1642.01 1155.99 1652.46 1104.36 1630.26 1081.99C1580.93 1032.2 1511.59 1075.06 1458.27 1085.1C1445.46 1087.57 1431.83 1074.33 1418.96 1076.43C1371.75 1084.07 1332.24 1132.68 1319.91 1180.82C1308.42 1225.61 1286.09 1256.84 1277.08 1301.35C1276.9 1312.15 1282.72 1318.98 1284.84 1329.33C1296.87 1356.44 1328.42 1369.33 1327.23 1398.92C1325.82 1434.18 1273.67 1476.01 1318.74 1502.22C1346.2 1518.4 1377.79 1509.84 1407.45 1525.54C1379.98 1554.9 1351.88 1592.3 1361.48 1641.29C1369.55 1682.58 1397.46 1712.59 1432.57 1721.55C1469.64 1731.05 1502.49 1705.67 1527.75 1682.39C1532.35 1681.37 1536.49 1681.55 1540.57 1682.18C1613.36 1692.82 1685.22 1685.45 1732.45 1614.15C1749.13 1588.89 1768.11 1567.84 1784.77 1542.69C1814.15 1497.77 1833.43 1442.22 1812.25 1384.6Z" stroke="white" stroke-width="1.169" stroke-miterlimit="10" stroke-linecap="round" stroke-linejoin="round"/>
<path opacity="0.5" d="M1796.68 1376.95C1795.49 1368.88 1794.81 1360 1792.99 1352.11C1791.18 1344.11 1787.62 1337.89 1784.28 1331.5C1758.5 1303.86 1755.93 1264.06 1747.31 1225.48C1738.71 1186.78 1698.58 1180.5 1670.31 1172.09C1636.74 1162.23 1646.49 1113.63 1625.66 1092.46C1579.3 1045.63 1514.14 1085.94 1463.95 1095.4C1451.88 1097.6 1439.15 1085.31 1427 1087.36C1382.6 1094.47 1345.48 1140.27 1333.95 1185.4C1323.13 1227.39 1302.15 1256.85 1293.69 1298.65C1293.6 1308.76 1298.96 1315.22 1300.95 1324.94C1312.18 1350.41 1341.9 1362.55 1340.84 1390.4C1339.49 1423.53 1290.51 1462.88 1332.74 1487.48C1358.6 1502.75 1388.2 1494.6 1416.04 1509.45C1390.23 1536.99 1363.84 1572.12 1372.81 1618.19C1380.47 1657.11 1406.5 1685.18 1439.54 1693.58C1474.46 1702.49 1505.27 1678.7 1529.05 1656.68C1533.32 1655.82 1537.29 1655.82 1541.07 1656.38C1609.46 1666.42 1677.01 1659.42 1721.44 1592.49C1737.21 1568.77 1755 1549.06 1770.67 1525.31C1798.54 1483.43 1816.79 1431.18 1796.68 1376.95Z" stroke="white" stroke-width="1.169" stroke-miterlimit="10" stroke-linecap="round" stroke-linejoin="round"/>
<path opacity="0.5" d="M1781.19 1369.45C1780.14 1361.89 1779.48 1353.61 1777.7 1346.21C1776.03 1338.72 1772.62 1332.9 1769.53 1326.94C1745.35 1301.04 1742.96 1263.8 1734.94 1227.64C1726.82 1191.46 1689.39 1185.56 1662.89 1177.63C1631.38 1168.33 1640.61 1122.93 1621.12 1103.2C1577.71 1059.43 1516.76 1097.07 1469.79 1105.98C1458.54 1108.16 1446.53 1096.55 1435.21 1098.47C1393.61 1105.14 1358.9 1148.02 1348.05 1190.24C1337.88 1229.55 1318.38 1257.02 1310.46 1296.23C1310.36 1305.62 1315.46 1311.78 1317.23 1320.84C1327.74 1344.8 1355.65 1355.98 1354.52 1382.01C1353.25 1413.01 1307.44 1449.77 1347.03 1472.83C1371.19 1487.04 1398.89 1479.44 1425.03 1493.35C1400.87 1519.08 1376.19 1552.05 1384.62 1595.23C1391.71 1631.49 1416.23 1657.84 1447.11 1665.77C1479.74 1674.18 1508.55 1651.75 1530.91 1631.25C1534.9 1630.31 1538.63 1630.49 1542.22 1630.99C1606.22 1640.43 1669.46 1633.81 1710.98 1571.21C1725.74 1549.01 1742.36 1530.53 1757.12 1508.32C1782.92 1469.1 1799.92 1420.2 1781.19 1369.45Z" stroke="white" stroke-width="1.169" stroke-miterlimit="10" stroke-linecap="round" stroke-linejoin="round"/>
<path opacity="0.5" d="M1765.7 1361.95C1764.78 1354.91 1764.05 1347.2 1762.5 1340.34C1760.97 1333.37 1757.71 1327.95 1754.85 1322.52C1732.38 1298.4 1730.06 1263.68 1722.63 1230.07C1715.11 1196.32 1680.16 1190.85 1655.51 1183.55C1626.15 1174.95 1634.78 1132.6 1616.54 1114.17C1576.11 1073.36 1519.25 1108.42 1475.62 1116.68C1465.1 1118.71 1453.9 1107.91 1443.42 1109.59C1404.73 1115.74 1372.33 1155.67 1362.25 1195.12C1352.83 1231.78 1334.57 1257.44 1327.13 1293.79C1327 1302.58 1331.75 1308.28 1333.5 1316.75C1343.31 1339.09 1369.29 1349.5 1368.28 1373.78C1366.98 1402.63 1324.44 1436.94 1361.28 1458.41C1383.84 1471.71 1409.64 1464.67 1433.97 1477.61C1411.46 1501.64 1388.5 1532.22 1396.29 1572.48C1402.9 1606.23 1425.71 1630.91 1454.53 1638.17C1484.92 1645.96 1511.8 1625.03 1532.65 1606.04C1536.42 1605.15 1539.86 1605.26 1543.15 1605.79C1602.77 1614.52 1661.75 1608.53 1700.31 1550.01C1713.97 1529.29 1729.49 1512.18 1743.24 1491.49C1767.3 1454.77 1783.16 1409.14 1765.7 1361.95Z" stroke="white" stroke-width="1.169" stroke-miterlimit="10" stroke-linecap="round" stroke-linejoin="round"/>
<path opacity="0.5" d="M1750.14 1354.31C1749.25 1347.87 1748.65 1340.67 1747.16 1334.19C1745.66 1327.7 1742.75 1322.74 1740.06 1317.59C1719.19 1295.22 1717.13 1263.2 1710.11 1231.96C1703.19 1200.63 1670.72 1195.61 1647.83 1188.78C1620.63 1180.78 1628.65 1141.6 1611.67 1124.46C1574.2 1086.6 1521.54 1119.11 1481.03 1126.79C1471.35 1128.57 1460.96 1118.59 1451.2 1120.22C1415.29 1126.06 1385.32 1162.96 1375.92 1199.49C1367.15 1233.46 1350.16 1257.21 1343.45 1291.02C1343.4 1299.23 1347.7 1304.45 1349.33 1312.29C1358.43 1333 1382.46 1342.76 1381.5 1365.15C1380.37 1391.9 1340.8 1423.68 1375 1443.6C1395.85 1455.95 1419.86 1449.38 1442.29 1461.33C1421.43 1483.54 1400.18 1511.96 1407.35 1549.2C1413.45 1580.54 1434.59 1603.22 1461.23 1610.12C1489.43 1617.44 1514.29 1598.1 1533.55 1580.34C1537 1579.61 1540.14 1579.63 1543.23 1580.12C1598.46 1588.24 1653.03 1582.6 1688.89 1528.47C1701.53 1509.27 1715.88 1493.39 1728.62 1474.21C1751.69 1440.44 1766.4 1398.19 1750.14 1354.31Z" stroke="white" stroke-width="1.169" stroke-miterlimit="10" stroke-linecap="round" stroke-linejoin="round"/>
<path opacity="0.5" d="M1734.75 1346.82C1733.89 1340.87 1733.32 1334.28 1731.96 1328.3C1730.6 1322.33 1727.94 1317.79 1725.5 1313.07C1706.33 1292.48 1704.37 1262.86 1698.02 1234.19C1691.69 1205.41 1661.82 1200.73 1640.78 1194.53C1615.82 1187.25 1623.04 1151.07 1607.51 1135.28C1573.02 1100.38 1524.54 1130.33 1487.25 1137.46C1478.29 1139.2 1468.71 1130.03 1459.79 1131.42C1426.8 1136.74 1399.22 1170.83 1390.51 1204.34C1382.5 1235.65 1366.88 1257.39 1360.61 1288.58C1360.55 1296.08 1364.61 1300.87 1366 1308.17C1374.31 1327.12 1396.5 1336.26 1395.65 1356.89C1394.6 1381.52 1358.21 1410.71 1389.65 1429.16C1408.91 1440.48 1430.92 1434.44 1451.63 1445.56C1432.43 1465.96 1412.88 1492.23 1419.42 1526.43C1425.04 1555.26 1444.56 1576.31 1469.05 1582.5C1495.01 1589.21 1517.94 1571.37 1535.7 1554.99C1538.94 1554.32 1541.78 1554.38 1544.67 1554.81C1595.6 1562.36 1645.86 1557.09 1678.72 1507.27C1690.36 1489.58 1703.65 1474.84 1715.37 1457.29C1736.16 1426.12 1749.55 1387.09 1734.75 1346.82Z" stroke="white" stroke-width="1.169" stroke-miterlimit="10" stroke-linecap="round" stroke-linejoin="round"/>
<path opacity="0.5" d="M1719.26 1339.33C1718.44 1333.86 1718 1327.9 1716.77 1322.44C1715.55 1316.98 1713.04 1312.84 1710.86 1308.43C1693.29 1289.58 1691.61 1262.54 1685.75 1236.39C1679.81 1210.1 1652.63 1205.8 1633.46 1200.1C1610.55 1193.39 1617.26 1160.41 1603.07 1146.05C1571.53 1114.22 1527.25 1141.62 1493.09 1148.05C1484.98 1149.54 1476.19 1141.3 1467.9 1142.51C1437.71 1147.4 1412.54 1178.57 1404.52 1209.17C1397.15 1237.8 1382.89 1257.75 1377.17 1286.23C1377.09 1293.13 1380.79 1297.47 1382.06 1304.14C1389.77 1321.49 1409.94 1329.73 1409.12 1348.58C1408.14 1371.08 1374.92 1397.79 1403.71 1414.69C1421.36 1425.1 1441.38 1419.58 1460.4 1429.65C1442.84 1448.35 1424.92 1472.2 1431 1503.66C1436.23 1529.99 1453.97 1549.13 1476.39 1554.87C1500.08 1560.97 1521.08 1544.75 1537.25 1529.72C1540.17 1529.09 1542.8 1529.21 1545.4 1529.56C1591.86 1536.37 1637.88 1531.61 1667.96 1486.04C1678.69 1469.89 1690.78 1456.5 1701.39 1440.43C1720.46 1411.65 1732.78 1376.15 1719.26 1339.33Z" stroke="white" stroke-width="1.169" stroke-miterlimit="10" stroke-linecap="round" stroke-linejoin="round"/>
<path opacity="0.5" d="M1703.68 1331.79C1703 1326.83 1702.59 1321.36 1701.41 1316.39C1700.3 1311.56 1698.06 1307.73 1696.04 1303.72C1680.15 1286.76 1678.56 1262.13 1673.21 1238.38C1667.85 1214.63 1643.27 1210.68 1625.75 1205.55C1605 1199.43 1611.1 1169.62 1598.17 1156.44C1569.61 1127.57 1529.42 1152.38 1498.6 1158.18C1491.2 1159.62 1483.25 1151.97 1475.88 1153.18C1448.59 1157.56 1425.74 1185.78 1418.58 1213.63C1411.97 1239.6 1398.96 1257.64 1393.81 1283.3C1393.73 1289.47 1397.07 1293.48 1398.22 1299.51C1405.12 1315.22 1423.45 1322.72 1422.77 1339.81C1421.85 1360.19 1391.8 1384.42 1417.87 1399.63C1433.81 1409.09 1452.04 1404.04 1469.23 1413.26C1453.32 1430.26 1437.02 1451.81 1442.68 1480.29C1447.4 1504.22 1463.45 1521.46 1483.81 1526.65C1505.34 1532.16 1524.32 1517.42 1538.96 1504C1541.56 1503.51 1544.01 1503.47 1546.29 1503.85C1588.46 1510.09 1629.97 1505.65 1657.35 1464.47C1667.06 1449.84 1677.98 1437.67 1687.7 1423.03C1704.85 1397.31 1716.11 1365.21 1703.68 1331.79Z" stroke="white" stroke-width="1.169" stroke-miterlimit="10" stroke-linecap="round" stroke-linejoin="round"/>
<path opacity="0.5" d="M1688.21 1324.17C1687.57 1319.7 1687.18 1314.83 1686.23 1310.4C1685.18 1305.94 1683.29 1302.56 1681.4 1299.07C1667.13 1283.74 1665.79 1261.92 1661.05 1240.48C1656.31 1219.05 1634.19 1215.65 1618.54 1211.03C1599.94 1205.61 1605.35 1178.71 1593.85 1167.12C1568.25 1141.19 1532.25 1163.46 1504.55 1168.67C1497.89 1169.95 1490.84 1163.15 1484.11 1164.17C1459.62 1168.12 1439.18 1193.42 1432.7 1218.36C1426.75 1241.53 1415.21 1257.7 1410.49 1280.85C1410.38 1286.42 1413.47 1290.01 1414.51 1295.3C1420.71 1309.38 1437.11 1316.11 1436.45 1331.43C1435.71 1349.7 1408.73 1371.32 1431.96 1384.92C1446.33 1393.24 1462.64 1388.86 1477.93 1397.08C1463.67 1412.27 1449.07 1431.65 1454.11 1457.1C1458.35 1478.52 1472.78 1494.13 1490.98 1498.73C1510.26 1503.62 1527.3 1490.5 1540.34 1478.44C1542.75 1477.9 1544.87 1478 1546.97 1478.22C1584.66 1483.71 1622.04 1479.82 1646.43 1442.84C1655.14 1429.71 1664.97 1418.92 1673.68 1405.79C1689.34 1382.88 1699.27 1354.11 1688.21 1324.17Z" stroke="white" stroke-width="1.169" stroke-miterlimit="10" stroke-linecap="round" stroke-linejoin="round"/>
<path opacity="0.5" d="M1672.73 1316.54C1672.22 1312.71 1671.87 1308.32 1670.96 1304.38C1670.05 1300.43 1668.3 1297.45 1666.66 1294.39C1654.09 1280.83 1652.73 1261.51 1648.68 1242.64C1644.52 1223.75 1624.9 1220.68 1611.1 1216.68C1594.75 1211.87 1599.45 1188.12 1589.31 1177.85C1566.66 1154.99 1534.85 1174.7 1510.39 1179.25C1504.46 1180.37 1498.22 1174.38 1492.41 1175.3C1470.74 1178.7 1452.69 1201.2 1446.99 1223.25C1441.7 1243.74 1431.51 1258.13 1427.35 1278.46C1427.33 1283.34 1429.96 1286.56 1430.88 1291.22C1436.38 1303.68 1450.96 1309.56 1450.32 1323.09C1449.65 1339.24 1425.74 1358.36 1446.43 1370.43C1458.99 1377.78 1473.52 1373.87 1487.1 1381.14C1474.5 1394.52 1461.6 1411.75 1466.11 1434.19C1469.85 1453.21 1482.61 1466.82 1498.74 1470.97C1515.76 1475.25 1530.86 1463.74 1542.42 1452.94C1544.51 1452.44 1546.42 1452.6 1548.33 1452.77C1581.73 1457.69 1614.68 1454.26 1636.29 1421.53C1643.99 1409.91 1652.64 1400.35 1660.33 1388.86C1673.63 1368.52 1682.51 1343.04 1672.73 1316.54Z" stroke="white" stroke-width="1.169" stroke-miterlimit="10" stroke-linecap="round" stroke-linejoin="round"/>
<path opacity="0.5" d="M1657.25 1309.04C1656.78 1305.57 1656.44 1301.91 1655.67 1298.48C1654.89 1295.05 1653.3 1292.47 1652.01 1289.85C1641.03 1278.16 1639.98 1261.18 1636.31 1244.81C1632.64 1228.43 1615.7 1225.85 1603.67 1222.22C1589.39 1217.97 1593.58 1197.41 1584.78 1188.46C1565.11 1168.56 1537.49 1185.72 1516.25 1189.71C1511.14 1190.7 1505.72 1185.53 1500.54 1186.27C1481.77 1189.26 1466.04 1208.7 1461.03 1227.84C1456.39 1245.65 1447.56 1258.14 1444.04 1275.9C1443.99 1280.18 1446.27 1282.94 1447.07 1286.98C1451.87 1297.82 1464.51 1302.93 1463.91 1314.68C1463.31 1328.71 1442.56 1345.35 1460.51 1355.84C1471.46 1362.27 1484 1358.78 1495.88 1365.11C1484.92 1376.79 1473.74 1391.74 1477.61 1411.27C1480.76 1427.74 1491.91 1439.72 1505.89 1443.17C1520.74 1446.97 1533.74 1436.8 1543.88 1427.53C1545.66 1427.06 1547.38 1427.17 1548.96 1427.48C1577.98 1431.69 1606.6 1428.75 1625.41 1400.38C1632.09 1390.39 1639.58 1381.95 1646.27 1371.85C1658.11 1354.21 1665.76 1331.98 1657.25 1309.04Z" stroke="white" stroke-width="1.169" stroke-miterlimit="10" stroke-linecap="round" stroke-linejoin="round"/>
<defs>
<filter id="filter0_f" x="-368.1" y="241.013" width="2569.05" height="731.849" filterUnits="userSpaceOnUse" color-interpolation-filters="sRGB">
<feFlood flood-opacity="0" result="BackgroundImageFix"/>
<feBlend mode="normal" in="SourceGraphic" in2="BackgroundImageFix" result="shape"/>
<feGaussianBlur stdDeviation="75" result="effect1_foregroundBlur"/>
</filter>
<filter id="filter1_f" x="-211.165" y="312.274" width="1846.19" height="684.4" filterUnits="userSpaceOnUse" color-interpolation-filters="sRGB">
<feFlood flood-opacity="0" result="BackgroundImageFix"/>
<feBlend mode="normal" in="SourceGraphic" in2="BackgroundImageFix" result="shape"/>
<feGaussianBlur stdDeviation="75" result="effect1_foregroundBlur"/>
</filter>
<linearGradient id="paint0_linear" x1="933.407" y1="60.5562" x2="933.407" y2="416.323" gradientUnits="userSpaceOnUse">
<stop stop-color="#252569"/>
<stop offset="1" stop-color="#28234D"/>
</linearGradient>
<linearGradient id="paint1_linear" x1="1976.88" y1="425.292" x2="1981.08" y2="455.215" gradientUnits="userSpaceOnUse">
<stop stop-color="#FF7373"/>
<stop offset="1" stop-color="#491EB8"/>
</linearGradient>
<linearGradient id="paint2_linear" x1="1969.7" y1="418.113" x2="1975.13" y2="462.355" gradientUnits="userSpaceOnUse">
<stop stop-color="#FF7373"/>
<stop offset="1" stop-color="#491EB8"/>
</linearGradient>
<linearGradient id="paint3_linear" x1="1962.52" y1="410.934" x2="1968.68" y2="469.543" gradientUnits="userSpaceOnUse">
<stop stop-color="#FF7373"/>
<stop offset="1" stop-color="#491EB8"/>
</linearGradient>
<linearGradient id="paint4_linear" x1="1955.34" y1="403.755" x2="1961.73" y2="476.766" gradientUnits="userSpaceOnUse">
<stop stop-color="#FF7373"/>
<stop offset="1" stop-color="#491EB8"/>
</linearGradient>
<linearGradient id="paint5_linear" x1="1948.16" y1="396.577" x2="1954.28" y2="484.01" gradientUnits="userSpaceOnUse">
<stop stop-color="#FF7373"/>
<stop offset="1" stop-color="#491EB8"/>
</linearGradient>
<linearGradient id="paint6_linear" x1="1940.99" y1="389.398" x2="1946.32" y2="491.262" gradientUnits="userSpaceOnUse">
<stop stop-color="#FF7373"/>
<stop offset="1" stop-color="#491EB8"/>
</linearGradient>
<linearGradient id="paint7_linear" x1="1933.81" y1="382.219" x2="1937.87" y2="498.51" gradientUnits="userSpaceOnUse">
<stop stop-color="#FF7373"/>
<stop offset="1" stop-color="#491EB8"/>
</linearGradient>
<linearGradient id="paint8_linear" x1="1926.63" y1="375.041" x2="1928.91" y2="505.74" gradientUnits="userSpaceOnUse">
<stop stop-color="#FF7373"/>
<stop offset="1" stop-color="#491EB8"/>
</linearGradient>
<linearGradient id="paint9_linear" x1="1919.45" y1="99.2526" x2="1919.45" y2="306.437" gradientUnits="userSpaceOnUse">
<stop stop-color="#FF7373"/>
<stop offset="1" stop-color="#491EB8"/>
</linearGradient>
<linearGradient id="paint10_linear" x1="-64.2159" y1="242.346" x2="-64.2158" y2="768.862" gradientUnits="userSpaceOnUse">
<stop stop-color="#4B20DD"/>
<stop offset="0.484375" stop-color="#DB5356"/>
<stop offset="1" stop-color="#FF5F8F" stop-opacity="0"/>
</linearGradient>
<linearGradient id="paint11_linear" x1="771.7" y1="485.163" x2="771.7" y2="695.985" gradientUnits="userSpaceOnUse">
<stop stop-color="#3899CF"/>
<stop offset="1" stop-color="#5B3C87"/>
</linearGradient>
<linearGradient id="paint12_linear" x1="717" y1="399" x2="717" y2="974" gradientUnits="userSpaceOnUse">
<stop stop-opacity="0"/>
<stop offset="1" stop-opacity="0.3"/>
</linearGradient>
<linearGradient id="paint13_linear" x1="790.827" y1="545.004" x2="790.827" y2="973.862" gradientUnits="userSpaceOnUse">
<stop stop-color="#C8D0F8"/>
<stop offset="1" stop-color="#F2F6FF"/>
</linearGradient>
<linearGradient id="paint14_linear" x1="717" y1="-1" x2="717" y2="399" gradientUnits="userSpaceOnUse">
<stop stop-opacity="0.3"/>
<stop offset="1" stop-opacity="0"/>
</linearGradient>
<clipPath id="clip0">
<rect width="1368" height="224" fill="white" transform="translate(32.9453 19.8618)"/>
</clipPath>
<clipPath id="clip1">
<rect width="1368" height="112" fill="white" transform="translate(32.9453 19.8618)"/>
</clipPath>
<clipPath id="clip2">
<rect width="1368" height="112" fill="white" transform="translate(32.9453 131.862)"/>
</clipPath>
<clipPath id="clip3">
<rect width="1854" height="1049" fill="white" transform="translate(-17 -19)"/>
</clipPath>
</defs>
</svg>
