<svg width="1440" height="362" viewBox="0 0 1440 362" fill="none" xmlns="http://www.w3.org/2000/svg">
<path d="M875.997 76.6822C663.195 -5.21068 656.497 83.203 492.997 97.1823C329.497 111.162 313.746 84.9473 148.358 66.4012C-17.0297 47.8551 -62.6199 90.5695 -141.742 110.35C-141.742 198.283 -147 738.596 -147 738.596L1511.86 738.596L1511.86 0C1511.86 0 1089.19 158.725 875.997 76.6822Z" fill="url(#paint0_linear)" fill-opacity="0.5"/>
<path d="M959.998 128.249C747.196 46.3561 716.858 43.3462 616.998 80.2489C517.137 117.152 459.525 114.698 294.137 96.152C128.749 77.6058 41.1206 101.23 -38.002 121.01C-38.002 208.943 -38.0024 699.358 -38.0024 699.358L1484.1 699.358L1480 100.252C1480 100.252 1173.19 210.292 959.998 128.249Z" fill="url(#paint1_linear)"/>
<defs>
<linearGradient id="paint0_linear" x1="689.094" y1="-41.3185" x2="689.094" y2="173.586" gradientUnits="userSpaceOnUse">
<stop stop-color="#B8CAEF" stop-opacity="0.24"/>
<stop offset="1" stop-color="#E5EEF4"/>
</linearGradient>
<linearGradient id="paint1_linear" x1="723.048" y1="57.5962" x2="723.048" y2="699.358" gradientUnits="userSpaceOnUse">
<stop stop-color="#130C3E"/>
<stop offset="1" stop-color="#1E1357"/>
</linearGradient>
</defs>
</svg>
