<svg width="64" height="64" viewBox="0 0 64 64" fill="none" xmlns="http://www.w3.org/2000/svg">
<mask id="mask0" mask-type="alpha" maskUnits="userSpaceOnUse" x="0" y="48" width="14" height="14">
<path fill-rule="evenodd" clip-rule="evenodd" d="M0 48.0269H13.4771V61.5006H0V48.0269Z" fill="black"/>
</mask>
<g mask="url(#mask0)">
<path fill-rule="evenodd" clip-rule="evenodd" d="M13.1975 48.3368C13.1021 48.239 12.9881 48.1612 12.8621 48.1083C12.7361 48.0553 12.6008 48.0282 12.4641 48.0285C12.3275 48.0288 12.1923 48.0565 12.0665 48.1101C11.9408 48.1636 11.8271 48.2419 11.7322 48.3402L0.28968 59.7827C0.196787 59.8778 0.123536 59.9903 0.0741089 60.1137C0.024682 60.2371 4.72633e-05 60.3691 0.00161119 60.502C0.00317513 60.6349 0.0309071 60.7663 0.0832238 60.8885C0.13554 61.0107 0.211417 61.1214 0.306522 61.2143C0.401627 61.3072 0.514097 61.3805 0.637511 61.4299C0.760924 61.4793 0.892865 61.5039 1.0258 61.5024C1.15873 61.5008 1.29006 61.4731 1.41228 61.4208C1.53449 61.3684 1.64521 61.2926 1.7381 61.1975L13.1705 49.7583C13.3613 49.5727 13.4712 49.3193 13.4763 49.0531C13.4813 48.787 13.3811 48.5296 13.1975 48.3368Z" fill="black"/>
<path fill-rule="evenodd" clip-rule="evenodd" d="M3.30104 50.0614C3.43555 50.0609 3.56859 50.0335 3.69237 49.9809C3.81615 49.9282 3.92818 49.8514 4.02188 49.7549L8.5962 45.1806C8.69472 45.0874 8.77345 44.9752 8.82771 44.8509C8.88197 44.7266 8.91065 44.5926 8.91204 44.457C8.91342 44.3214 8.88748 44.1868 8.83577 44.0614C8.78406 43.936 8.70763 43.8223 8.61104 43.7271C8.51445 43.6319 8.39967 43.557 8.27355 43.5071C8.14743 43.4572 8.01255 43.4332 7.87695 43.4365C7.74135 43.4398 7.6078 43.4703 7.48426 43.5263C7.36072 43.5824 7.24972 43.6627 7.15788 43.7625L2.57683 48.3402C2.43328 48.4806 2.33514 48.6608 2.2951 48.8576C2.25505 49.0544 2.27494 49.2586 2.3522 49.444C2.42946 49.6293 2.56053 49.7872 2.72848 49.8973C2.89643 50.0074 3.09353 50.0646 3.29431 50.0614H3.30441H3.30104Z" fill="black"/>
</g>
<mask id="mask1" mask-type="alpha" maskUnits="userSpaceOnUse" x="1" y="0" width="61" height="61">
<path fill-rule="evenodd" clip-rule="evenodd" d="M1.49557 0H61.5107V60.0051H1.49557V0Z" fill="black"/>
</mask>
<g mask="url(#mask1)">
<path fill-rule="evenodd" clip-rule="evenodd" d="M4.0219 27.4964L9.87285 20.3183H19.3954C16.5303 24.0633 14.1217 28.1363 12.2206 32.4514L4.0219 27.4964ZM59.4998 7.872C59.4998 16.4211 55.1646 25.6876 47.2893 33.9705C40.3065 41.3204 31.1074 47.0905 22.6526 49.4316L12.0825 38.8547C14.4202 30.4067 20.1937 21.2042 27.5436 14.2215C35.8265 6.34947 45.0931 2.01432 53.6421 2.01432C56.0337 2.01432 57.627 2.18947 58.907 2.60716C59.3213 3.88716 59.5032 5.47032 59.5032 7.872H59.4998ZM41.1958 42.1154V51.6379L33.9975 57.4922L29.0459 49.3171C33.3677 47.4079 37.4464 44.9902 41.1958 42.1154ZM60.6889 1.39116C60.638 1.26369 60.5615 1.148 60.4642 1.05125C60.3669 0.954496 60.2507 0.87873 60.123 0.828632C58.1861 0.064 56.0404 0 53.6421 0C44.5811 0 34.8227 4.53726 26.1558 12.7731C24.3335 14.5147 22.616 16.3627 21.0122 18.3074H9.42485C9.35532 18.3024 9.28553 18.3024 9.21601 18.3074C8.98104 18.3496 8.76863 18.4738 8.61643 18.6577L1.72801 27.1158C1.636 27.2277 1.56912 27.358 1.53189 27.498C1.49466 27.6379 1.48796 27.7843 1.51224 27.9271C1.53651 28.0699 1.59121 28.2058 1.6726 28.3256C1.754 28.4454 1.8602 28.5463 1.98401 28.6215L11.4358 34.3579C10.8126 35.9815 10.3242 37.4636 9.95369 38.8851C9.90652 39.0557 9.90503 39.2358 9.94937 39.4073C9.99371 39.5787 10.0823 39.7355 10.2063 39.8619L21.6488 51.3044C21.9082 51.5571 22.2754 51.6514 22.619 51.5571C24.0371 51.1865 25.5259 50.6981 27.1495 50.0716L32.8859 59.5301C32.9569 59.6427 33.0494 59.7402 33.1582 59.8169C33.267 59.8937 33.3899 59.9481 33.5197 59.9772C33.6496 60.0064 33.784 60.0095 33.9151 59.9865C34.0462 59.9636 34.1715 59.9149 34.2838 59.8434C34.3074 59.8232 34.3377 59.8063 34.368 59.776L42.8329 52.8707C42.9467 52.7784 43.0394 52.6626 43.1045 52.5312C43.1696 52.3999 43.2056 52.256 43.2101 52.1095V40.4952C45.1538 38.8914 47.0007 37.1739 48.7411 35.3516C56.9802 26.688 61.5141 16.9263 61.5141 7.86526C61.5141 5.46695 61.4467 3.31789 60.6821 1.39116H60.6889Z" fill="black"/>
<path fill-rule="evenodd" clip-rule="evenodd" d="M50.3478 15.4981C50.3478 17.8897 48.4076 19.8333 46.016 19.8333C44.8665 19.8324 43.7644 19.3753 42.9516 18.5625C42.1388 17.7497 41.6818 16.6476 41.6809 15.4981C41.6809 13.1099 43.6244 11.1629 46.016 11.1629C48.4076 11.1629 50.3512 13.1099 50.3512 15.4981H50.3478ZM46.016 9.15199C44.3338 9.15467 42.7211 9.82413 41.5316 11.0137C40.3421 12.2032 39.6726 13.8158 39.6699 15.4981C39.7236 17.1454 40.4157 18.7073 41.6 19.8536C42.7843 20.9999 44.3678 21.6408 46.016 21.6408C47.6642 21.6408 49.2478 20.9999 50.4321 19.8536C51.6163 18.7073 52.3084 17.1454 52.3621 15.4981C52.3603 13.8156 51.6912 12.2024 50.5014 11.0127C49.3117 9.82295 47.6986 9.15378 46.016 9.15199ZM16.9937 52.6046C16.7343 52.6156 16.4892 52.7267 16.3099 52.9145L11.7322 57.4956C11.5932 57.6374 11.499 57.8171 11.4615 58.0122C11.424 58.2073 11.4449 58.4091 11.5214 58.5924C11.598 58.7757 11.7269 58.9324 11.892 59.0428C12.0571 59.1533 12.2511 59.2126 12.4497 59.2135H12.4531C12.5873 59.2134 12.7202 59.1865 12.844 59.1344C12.9678 59.0824 13.0799 59.0062 13.1739 58.9103L17.7516 54.3326C17.9004 54.1905 18.002 54.0062 18.0426 53.8045C18.0832 53.6027 18.0608 53.3934 17.9784 53.2048C17.8961 53.0163 17.7578 52.8576 17.5823 52.7502C17.4067 52.6429 17.2024 52.592 16.9971 52.6046H16.9937Z" fill="black"/>
</g>
</svg>
