<svg width="200" height="50" viewBox="0 0 200 50" fill="none" xmlns="http://www.w3.org/2000/svg">
<g id="CodeJoin-Black 1">
<g id="Group 9">
<path id="Vector" fill-rule="evenodd" clip-rule="evenodd" d="M39.1044 23.5335C39.4268 22.9923 39.0363 22.3073 38.4045 22.3056L29.4005 22.282C29.1118 22.2813 28.844 22.4325 28.6966 22.6798L23.9128 30.7001C23.5926 31.237 23.9744 31.918 24.6013 31.9282L33.5387 32.0736C33.8316 32.0783 34.1046 31.9264 34.2541 31.6755L39.1044 23.5335ZM41.6796 21.6004C41.8175 21.3688 41.6502 21.0756 41.38 21.0753L28.5259 21.06C28.4201 21.0599 28.3154 21.0802 28.2174 21.1199L28.1981 21.1277L28.2256 21.0815C28.2314 21.0718 28.2244 21.0594 28.213 21.0594C28.2049 21.0594 28.1982 21.0659 28.1982 21.074L28.1981 21.1277L21.8148 31.8299C21.7939 31.8648 21.7699 31.8978 21.7431 31.9285C21.7021 31.9752 21.6679 32.0274 21.6413 32.0835L21.5554 32.2646L21.3926 32.5376L21.3148 32.6719C21.2093 32.8539 21.3313 33.0831 21.5418 33.0982L22.3629 33.1115L22.4735 33.1133L34.2292 33.3045C34.5221 33.3093 34.7951 33.1574 34.9446 32.9064L41.2551 22.313L41.3673 22.1248L41.5224 21.8643L41.6796 21.6004Z" fill="#9FC0DE"/>
<path id="Vector_2" fill-rule="evenodd" clip-rule="evenodd" d="M22.4016 12.6121C22.0956 12.0655 21.3101 12.0538 20.9878 12.591L16.0871 20.7603C15.9352 21.0134 15.9329 21.3285 16.0809 21.5838L21.0269 30.1171C21.3363 30.651 22.1066 30.661 22.4299 30.1353L27.3017 22.2155C27.4557 21.9651 27.4621 21.6514 27.3185 21.3949L22.4016 12.6121ZM21.713 9.88368C21.5825 9.64779 21.2439 9.64291 21.1065 9.8749L14.5774 20.9023C14.5237 20.993 14.4882 21.0932 14.4728 21.1974L14.4698 21.218L14.4438 21.171C14.4383 21.161 14.4241 21.1608 14.4183 21.1706C14.4141 21.1775 14.4164 21.1865 14.4234 21.1907L14.4698 21.218L20.4969 32.1231C20.5166 32.1587 20.533 32.196 20.5459 32.2346C20.5657 32.2935 20.5935 32.3493 20.6285 32.4006L20.7418 32.5661L20.8954 32.8442L20.9723 32.9792C21.0763 33.162 21.3366 33.1734 21.4563 33.0004L21.8841 32.3022L21.9417 32.2082L28.0663 22.2129C28.2189 21.9638 28.2258 21.6524 28.0844 21.3969L22.1146 10.6094L22.0086 10.4177L21.8617 10.1524L21.713 9.88368Z" fill="#9FC0DE"/>
<path id="Vector_3" fill-rule="evenodd" clip-rule="evenodd" d="M24.3606 10.9756C23.7403 10.9756 23.3466 11.6374 23.6446 12.1792L28.3391 20.7157C28.4824 20.9763 28.7568 21.1382 29.0551 21.1382H39.0244C39.6575 21.1382 40.0496 20.4516 39.726 19.9097L34.6288 11.3731C34.4817 11.1266 34.215 10.9756 33.9272 10.9756H24.3606ZM21.4286 9.7561C21.1582 9.7561 20.9904 10.0491 21.1281 10.2809L27.6737 21.2986C27.7275 21.3892 27.7985 21.4686 27.8828 21.5322L27.8994 21.5448L27.8455 21.5448C27.8341 21.5448 27.827 21.5571 27.8328 21.5669C27.8369 21.5739 27.8459 21.5762 27.853 21.5721L27.8994 21.5448L40.3982 21.5515C40.439 21.5516 40.4797 21.5553 40.5199 21.5626C40.5812 21.5738 40.6437 21.5765 40.7057 21.5707L40.9061 21.5518L41.2245 21.552L41.3804 21.5501C41.5914 21.5476 41.7269 21.3261 41.6326 21.1382L41.2253 20.4281L41.1702 20.3324L35.3371 10.1657C35.1918 9.91244 34.9213 9.7561 34.6284 9.7561H22.2606H22.0408H21.7367H21.4286Z" fill="#9FC0DE"/>
<path id="Vector_4" fill-rule="evenodd" clip-rule="evenodd" d="M42.5375 29.222C42.86 28.6809 42.4694 27.9958 41.8375 27.9942L32.8337 27.9706C32.5449 27.9699 32.2772 28.1211 32.1297 28.3684L27.346 36.3887C27.0258 36.9256 27.4076 37.6066 28.0345 37.6168L36.9719 37.7622C37.2648 37.7669 37.5378 37.615 37.6873 37.3641L42.5375 29.222ZM45.113 27.289C45.251 27.0574 45.0836 26.7642 44.813 26.7639L31.9591 26.7486C31.8533 26.7484 31.7485 26.7688 31.6506 26.8085L31.6313 26.8163L31.6588 26.7701C31.6646 26.7604 31.6576 26.748 31.6462 26.748C31.638 26.748 31.6314 26.7545 31.6314 26.7626L31.6313 26.8163L25.2479 37.5185C25.2271 37.5534 25.2031 37.5864 25.1762 37.6171C25.1353 37.6638 25.1011 37.716 25.0745 37.7721L24.9886 37.9532L24.8258 38.2261L24.748 38.3605C24.6424 38.5425 24.7645 38.7717 24.9749 38.7868L25.796 38.8001L25.9067 38.8019L37.6624 38.9931C37.9553 38.9978 38.2283 38.8459 38.3778 38.595L44.6885 28.0016L44.8004 27.8134L44.9559 27.5529L45.113 27.289Z" fill="#9FC0DE"/>
<path id="Vector_5" fill-rule="evenodd" clip-rule="evenodd" d="M15.9582 13.4809C15.6532 12.9299 14.8624 12.9179 14.5407 13.4594L9.95599 21.1773C9.80897 21.4249 9.8042 21.7314 9.94346 21.9833L14.4602 30.1557C14.7626 30.7028 15.5456 30.7202 15.8722 30.1872L20.5284 22.5882C20.6811 22.3392 20.688 22.0278 20.5466 21.7722L15.9582 13.4809ZM15.5906 10.2902C15.46 10.0543 15.1214 10.0494 14.9841 10.2814L8.45493 21.3088C8.40122 21.3994 8.36575 21.4997 8.3504 21.6039L8.34738 21.6245L8.32138 21.5775C8.31591 21.5675 8.30162 21.5673 8.29583 21.577C8.29167 21.584 8.29399 21.593 8.30101 21.5972L8.34738 21.6245L14.3745 32.5296C14.3942 32.5652 14.4106 32.6025 14.4235 32.6411C14.4432 32.7 14.471 32.7558 14.5061 32.8071L14.6193 32.9726L14.773 33.2507L14.8498 33.3857C14.9539 33.5685 15.2141 33.5799 15.3338 33.4068L15.7616 32.7087L15.8193 32.6147L21.9439 22.6194C22.0964 22.3703 22.1034 22.0589 21.962 21.8034L15.9922 11.0159L15.8861 10.8242L15.7393 10.5589L15.5906 10.2902Z" fill="#9FC0DE"/>
<path id="Vector_6" fill-rule="evenodd" clip-rule="evenodd" d="M27.6771 6.09756C27.0453 6.09756 26.653 6.78159 26.974 7.32358L31.5479 15.0478C31.6946 15.2956 31.9618 15.4476 32.2506 15.4478L41.6175 15.4529C42.2444 15.4532 42.6375 14.7787 42.3265 14.2365L37.8918 6.5072C37.7464 6.25391 37.476 6.09756 37.183 6.09756H27.6771ZM24.6938 4.87805C24.4234 4.87805 24.2557 5.17106 24.3933 5.40285L30.9389 16.4205C30.9927 16.5111 31.0638 16.5905 31.148 16.6542L31.1647 16.6668L31.1107 16.6667C31.0993 16.6667 31.0922 16.6791 31.098 16.6888C31.1022 16.6958 31.1112 16.6981 31.1182 16.694L31.1647 16.6668L43.6636 16.6735C43.7044 16.6735 43.7449 16.6772 43.7853 16.6846C43.8465 16.6958 43.9089 16.6985 43.971 16.6926L44.171 16.6738L44.4898 16.6739L44.6457 16.6721C44.8567 16.6696 44.9922 16.4481 44.8979 16.2602L44.4906 15.55L44.4355 15.4544L38.6024 5.28769C38.457 5.03439 38.1865 4.87805 37.8936 4.87805H25.5258H25.3061H25.0019H24.6938Z" fill="#9FC0DE"/>
</g>
<path id="Vector_7" d="M64.573 12.0033C65.8706 12.0033 66.9722 12.1767 67.8775 12.5236C68.7918 12.8618 69.6277 13.3431 70.3853 13.9675L68.2824 16.4911C67.7861 16.0835 67.2375 15.7626 66.6367 15.5285C66.0359 15.2857 65.3828 15.1642 64.6775 15.1642C63.92 15.1642 63.2277 15.381 62.6008 15.8147C61.9739 16.2396 61.4735 16.916 61.0988 17.8439C60.7245 18.7632 60.5371 19.9599 60.5371 21.4342C60.5371 23.6022 60.929 25.1805 61.7126 26.1691C62.5053 27.1491 63.5196 27.639 64.7559 27.639C65.6616 27.639 66.4147 27.4699 67.0155 27.1317C67.6163 26.7935 68.1694 26.4249 68.6743 26.026L70.6204 28.4976C69.9412 29.1653 69.1053 29.7377 68.1126 30.2147C67.12 30.6916 65.9228 30.9301 64.5208 30.9301C62.8841 30.9301 61.4298 30.5702 60.1584 29.8504C58.8959 29.122 57.9032 28.0553 57.1804 26.6504C56.4665 25.2369 56.1094 23.4981 56.1094 21.4342C56.1094 19.4223 56.4796 17.7138 57.2196 16.309C57.9686 14.9041 58.9828 13.8374 60.2628 13.109C61.5428 12.3719 62.9796 12.0033 64.573 12.0033ZM78.7212 16.2179C80.1494 16.2179 81.3641 16.5214 82.3653 17.1285C83.3669 17.7355 84.1331 18.5897 84.6641 19.6911C85.1955 20.7838 85.4608 22.0672 85.4608 23.5415C85.4608 25.8483 84.869 27.6564 83.6845 28.9659C82.5004 30.2753 80.8461 30.9301 78.7212 30.9301C76.5967 30.9301 74.9424 30.284 73.7579 28.9919C72.5739 27.6997 71.9816 25.8916 71.9816 23.5675C71.9816 22.1019 72.2473 20.8184 72.7784 19.7171C73.3184 18.6158 74.089 17.7572 75.0902 17.1415C76.1004 16.5258 77.3106 16.2179 78.7212 16.2179ZM78.7212 19.2488C77.8767 19.2488 77.2498 19.5957 76.8404 20.2895C76.44 20.9745 76.2396 22.0672 76.2396 23.5675C76.2396 25.0938 76.44 26.1995 76.8404 26.8846C77.2498 27.5697 77.8767 27.9122 78.7212 27.9122C79.5661 27.9122 80.1886 27.5697 80.589 26.8846C80.9984 26.1995 81.2028 25.0851 81.2028 23.5415C81.2028 22.0499 80.9984 20.9615 80.589 20.2764C80.1886 19.5914 79.5661 19.2488 78.7212 19.2488ZM96.2653 10.7545L100.393 11.1838V30.4878H96.7355L96.5265 28.9659C96.1437 29.5036 95.6343 29.9675 94.9984 30.3577C94.3629 30.7393 93.5922 30.9301 92.6865 30.9301C91.5371 30.9301 90.5837 30.6223 89.8261 30.0065C89.0775 29.3908 88.5159 28.5323 88.1412 27.4309C87.7755 26.3209 87.5926 25.0244 87.5926 23.5415C87.5926 22.1192 87.8147 20.8575 88.2588 19.7561C88.7028 18.6548 89.3388 17.7919 90.1657 17.1675C90.9931 16.5345 91.9771 16.2179 93.1175 16.2179C94.3628 16.2179 95.4122 16.6428 96.2653 17.4927V10.7545ZM94.2277 19.2228C93.5139 19.2228 92.9392 19.561 92.5037 20.2374C92.0686 20.9052 91.8506 22.0152 91.8506 23.5675C91.8506 24.7036 91.942 25.5881 92.1249 26.2212C92.3077 26.8455 92.5604 27.2835 92.8824 27.535C93.2049 27.7865 93.5747 27.9122 93.9926 27.9122C94.4543 27.9122 94.8722 27.7691 95.2465 27.4829C95.6298 27.1968 95.9694 26.8065 96.2653 26.3122V20.3545C95.978 19.9989 95.6735 19.7214 95.351 19.522C95.029 19.3225 94.6547 19.2228 94.2277 19.2228ZM107.618 24.7773C107.758 25.9046 108.128 26.7155 108.729 27.2098C109.329 27.6954 110.07 27.9382 110.949 27.9382C111.585 27.9382 112.199 27.8342 112.791 27.626C113.383 27.4179 113.953 27.1404 114.502 26.7935L116.16 29.0309C115.507 29.5859 114.715 30.0412 113.783 30.3968C112.86 30.7523 111.807 30.9301 110.622 30.9301C109.038 30.9301 107.71 30.6179 106.639 29.9935C105.568 29.3605 104.762 28.4932 104.222 27.3919C103.683 26.2906 103.413 25.0244 103.413 23.5935C103.413 22.232 103.674 20.9962 104.196 19.8862C104.719 18.7675 105.481 17.8786 106.482 17.2195C107.492 16.5518 108.724 16.2179 110.178 16.2179C111.502 16.2179 112.647 16.4997 113.613 17.0634C114.589 17.6271 115.342 18.4379 115.873 19.496C116.413 20.554 116.683 21.8244 116.683 23.3073C116.683 23.5415 116.674 23.793 116.657 24.0618C116.648 24.3306 116.631 24.5691 116.604 24.7773H107.618ZM110.178 18.9756C109.438 18.9756 108.842 19.2401 108.389 19.7691C107.936 20.2981 107.662 21.1436 107.566 22.3057H112.66C112.651 21.2997 112.456 20.4932 112.072 19.8862C111.689 19.2792 111.058 18.9756 110.178 18.9756ZM131.641 12.4586V23.9968C131.641 26.1041 131.005 27.7778 129.734 29.0179C128.471 30.258 126.682 30.8781 124.366 30.8781C123.199 30.8781 122.189 30.7306 121.336 30.4358C120.491 30.1323 119.677 29.716 118.893 29.187L120.526 26.5594C121.144 26.9843 121.723 27.2835 122.263 27.4569C122.803 27.6217 123.417 27.7041 124.104 27.7041C125.036 27.7041 125.811 27.4092 126.429 26.8195C127.056 26.2212 127.37 25.2976 127.37 24.0488V15.5805H121.806V12.4586H131.641ZM141.374 16.2179C142.802 16.2179 144.017 16.5214 145.018 17.1285C146.02 17.7355 146.786 18.5897 147.317 19.6911C147.849 20.7838 148.114 22.0672 148.114 23.5415C148.114 25.8483 147.522 27.6564 146.338 28.9659C145.153 30.2753 143.499 30.9301 141.374 30.9301C139.25 30.9301 137.596 30.284 136.411 28.9919C135.227 27.6997 134.635 25.8916 134.635 23.5675C134.635 22.1019 134.9 20.8184 135.431 19.7171C135.971 18.6158 136.742 17.7572 137.743 17.1415C138.753 16.5258 139.964 16.2179 141.374 16.2179ZM141.374 19.2488C140.53 19.2488 139.903 19.5957 139.493 20.2895C139.093 20.9745 138.893 22.0672 138.893 23.5675C138.893 25.0938 139.093 26.1995 139.493 26.8846C139.903 27.5697 140.53 27.9122 141.374 27.9122C142.219 27.9122 142.842 27.5697 143.242 26.8846C143.651 26.1995 143.856 25.0851 143.856 23.5415C143.856 22.0499 143.651 20.9615 143.242 20.2764C142.842 19.5914 142.219 19.2488 141.374 19.2488ZM157.011 9.44067C157.726 9.44067 158.309 9.66181 158.762 10.1041C159.215 10.5464 159.441 11.0971 159.441 11.7561C159.441 12.4152 159.215 12.9702 158.762 13.4212C158.309 13.8634 157.726 14.0846 157.011 14.0846C156.289 14.0846 155.697 13.8634 155.235 13.4212C154.782 12.9702 154.556 12.4152 154.556 11.7561C154.556 11.0971 154.782 10.5464 155.235 10.1041C155.697 9.66181 156.289 9.44067 157.011 9.44067ZM159.506 16.6732V27.6781H163.033V30.4878H151.447V27.6781H155.379V19.4829H151.578V16.6732H159.506ZM166.693 30.4878V16.6732H170.298L170.585 18.2732C171.203 17.5794 171.856 17.0634 172.544 16.7252C173.232 16.387 174.016 16.2179 174.895 16.2179C176.08 16.2179 177.011 16.5778 177.69 17.2976C178.369 18.0174 178.709 19.032 178.709 20.3415V30.4878H174.582V21.5252C174.582 20.6753 174.486 20.0857 174.294 19.7561C174.111 19.4179 173.763 19.2488 173.249 19.2488C172.814 19.2488 172.396 19.3875 171.996 19.6651C171.604 19.9426 171.212 20.3285 170.82 20.8228V30.4878H166.693Z" fill="#FF8D72"/>
<path id="Vector_8" d="M182.16 34.1463H194.813" stroke="#FF8D72" stroke-width="6"/>
</g>
</svg>
